# xmcd
#
# Track frame offsets:
#	150
#	14618
#	32404
#	48299
#	72401
#	88463
#	106129
#	122202
#	138602
#	155772
#	172630
#	187817
#	207643
#	222710
#	239064
#	261418
#	279271
#	297462
#	310631
#	327849
#	339026
#
# Disc length: 4730 seconds
#
# Revision: 7
# Processed by: cddbd v1.5.2PL0 Copyright (c) Steve Scherf et al.
# Submitted via: audiograbber 1.83.01
#
DISCID=42127815
DTITLE=Various Artist - The Dome Vol. 50 [CD 2)
DYEAR=2009
DGENRE=Chart Hits
TTITLE0=Depeche Mode - Wrong
TTITLE1=Mando Diao  - Gloria [Radio Edit]
TTITLE2=The All-American Rejects - Gives You Hell [Album Version]
TTITLE3=Polarkreis 18 - Happy Go Lucky
TTITLE4=Pet Shop Boys - Love etc.
TTITLE5=James Morrison - Please Don't Stop The Rain
TTITLE6=Sunrise Avenue - The Whole Story
TTITLE7=Eisblume - Leben ist schön [Album Version]
TTITLE8=Reamonn - Moments Like This
TTITLE9=A-ha - Foot Of The Mountain [Radio Edit]
TTITLE10=Silvester - Du willst mehr
TTITLE11=Sportfreunde Stiller - Ein Kompliment [Unplugged]
TTITLE12=Die Toten Hosen - Auflösen
TTITLE13=Rosenstolz - Blaue Flecken
TTITLE14=Peter Doherty - Last Of The English Roses
TTITLE15=Dredg - Information [Radio Edit]
TTITLE16=Phoenix - Lisztomania
TTITLE17=The Prodigy - Warrior's Dance [Edit]
TTITLE18=Selig - Wir werden uns wiedersehen [Radio Mix]
TTITLE19=Ingrid Michaelson - Be OK
TTITLE20=Julia Goldstern - Shine Like Gold
EXTD=YEAR: 2009
EXTT0=
EXTT1=
EXTT2=
EXTT3=
EXTT4=
EXTT5=
EXTT6=
EXTT7=
EXTT8=
EXTT9=
EXTT10=
EXTT11=
EXTT12=
EXTT13=
EXTT14=
EXTT15=
EXTT16=
EXTT17=
EXTT18=
EXTT19=
EXTT20=
PLAYORDER=
